<svg width="200" height="200" viewBox="0 0 200 200" fill="none" xmlns="http://www.w3.org/2000/svg">
<circle cx="100" cy="100" r="100" fill="#F0B529" fill-opacity="none"/>
<g clip-path="url(#clip0_593_212)">
<path d="M129.212 57.3333C126.702 59.8269 124.22 62.35 121.671 64.7962C120.801 65.6324 120.629 66.4489 121.016 67.5533C121.957 70.2286 122.852 72.9219 123.72 75.6217C124.017 76.5462 124.576 77.078 125.491 77.3725C128.225 78.2512 130.955 79.1495 133.668 80.0952C134.681 80.447 135.44 80.2883 136.197 79.5111C138.481 77.1713 140.818 74.8854 143.121 72.5652C143.346 72.3394 143.477 72.0203 143.792 71.8534C144.049 73.7468 143.858 75.674 143.235 77.4805C142.046 81.1112 139.543 84.169 136.216 86.0565C132.889 87.944 128.977 88.5255 125.243 87.6875C124.273 87.4764 123.571 87.6875 122.878 88.3829C111.403 99.8531 99.9169 111.311 88.4201 122.756C87.6758 123.497 87.5578 124.256 87.7644 125.218C89.0758 131.57 86.5709 137.755 81.2613 141.371C72.0813 147.629 59.3326 142.383 57.1999 131.464C56.7833 129.376 56.8019 127.224 57.2543 125.144C57.7067 123.063 58.5834 121.097 59.8297 119.369C61.076 117.641 62.6653 116.188 64.4986 115.1C66.332 114.011 68.3701 113.311 70.4863 113.043C72.2239 112.822 74.0419 113.074 75.8058 113.269C76.7893 113.377 77.5286 113.282 78.2647 112.55C89.7113 101.097 101.175 89.6592 112.655 78.2381C113.418 77.4789 113.565 76.7229 113.365 75.7101C111.967 68.6742 115.072 62.1291 121.383 58.8141C123.774 57.5178 126.511 57.0001 129.212 57.3333ZM72.5616 137.654C74.0156 137.654 75.4713 137.634 76.9254 137.654C77.7335 137.669 78.3139 137.372 78.7286 136.672C80.1843 134.232 81.6498 131.798 83.1252 129.371C83.5448 128.679 83.553 128.021 83.1252 127.327C81.6509 124.898 80.1865 122.463 78.7319 120.023C78.5685 119.715 78.3203 119.46 78.0165 119.288C77.7127 119.116 77.3659 119.035 77.0172 119.053C74.0785 119.062 71.1392 119.062 68.1995 119.053C67.8506 119.034 67.5035 119.115 67.199 119.286C66.8945 119.457 66.645 119.711 66.4799 120.018C65.0253 122.461 63.5614 124.896 62.0882 127.324C61.6653 128.021 61.6653 128.669 62.0882 129.363C63.5636 131.791 65.0274 134.226 66.4799 136.667C66.8946 137.363 67.4749 137.665 68.2831 137.649C69.7142 137.636 71.1371 137.654 72.5616 137.654ZM84.5055 118.418L118.476 84.5164L116.632 82.4973L82.5777 116.466L84.5055 118.418Z" fill="white"/>
<path d="M103.718 116.801L101.361 114.489L114.532 101.286L116.886 103.685C115.46 106.241 115.575 108.355 117.285 110.066C119.042 111.827 121.14 111.956 123.753 110.51L141.574 128.221L128.342 141.437C128.189 141.296 127.871 141.021 127.574 140.727C122.11 135.272 116.642 129.822 111.17 124.375C110.701 123.911 110.537 123.613 110.952 122.957C112.1 121.157 111.726 118.714 110.211 117.199C109.474 116.448 108.509 115.959 107.466 115.809C106.423 115.658 105.36 115.854 104.439 116.366C104.179 116.516 103.928 116.677 103.718 116.801ZM116.734 118.496L132.079 133.81L134.12 131.919L118.729 116.566L116.734 118.496Z" fill="white"/>
<path d="M131.528 143.237L143.392 131.403C144.575 133.54 144.167 138.055 141.292 141.057C138.915 143.544 134.523 144.57 131.528 143.237Z" fill="white"/>
<path d="M72.5616 137.654C71.1371 137.654 69.7142 137.636 68.2896 137.654C67.4815 137.669 66.9012 137.366 66.4864 136.672C65.0318 134.232 63.568 131.797 62.0948 129.368C61.6735 128.674 61.6735 128.026 62.0948 127.329C63.5701 124.903 65.034 122.468 66.4864 120.023C66.6516 119.716 66.901 119.462 67.2056 119.291C67.5101 119.12 67.8571 119.039 68.206 119.058C71.1447 119.068 74.084 119.068 77.0238 119.058C77.3725 119.04 77.7192 119.121 78.0231 119.293C78.3269 119.465 78.5751 119.72 78.7384 120.028C80.1898 122.471 81.6542 124.905 83.1317 127.332C83.553 128.026 83.5448 128.684 83.1317 129.376C81.6575 131.804 80.192 134.238 78.7352 136.677C78.3188 137.372 77.7385 137.669 76.932 137.659C75.4714 137.634 74.0157 137.654 72.5616 137.654ZM72.6649 122.172C71.6043 122.172 70.5338 122.124 69.4847 122.198C69.2912 122.22 69.1041 122.281 68.935 122.377C68.7659 122.474 68.6183 122.604 68.5011 122.759C67.4454 124.415 66.434 126.099 65.4668 127.81C65.387 127.983 65.3457 128.172 65.3457 128.362C65.3457 128.553 65.387 128.741 65.4668 128.915C66.434 130.624 67.4454 132.308 68.5011 133.967C68.6136 134.124 68.7578 134.256 68.9244 134.354C69.0909 134.452 69.2762 134.514 69.4683 134.537C71.5567 134.588 73.6474 134.588 75.7402 134.537C75.9319 134.516 76.1171 134.455 76.2838 134.358C76.4504 134.261 76.5947 134.13 76.7074 133.974C77.7614 132.316 78.7368 130.608 79.7696 128.938C80.0237 128.528 80.0597 128.232 79.7909 127.8C78.7494 126.135 77.7379 124.45 76.7566 122.748C76.4877 122.283 76.1615 122.147 75.6582 122.162C74.6648 122.191 73.6649 122.17 72.6649 122.172Z" fill="#154A81"/>
<path d="M84.5054 118.418L82.5776 116.466L116.632 82.4971L118.476 84.5162L84.5054 118.418Z" fill="#154A81"/>
<path d="M116.734 118.497L118.729 116.562L134.12 131.919L132.079 133.81L116.734 118.497Z" fill="#154A81"/>
<path d="M72.6649 122.171C73.6649 122.171 74.6649 122.191 75.6648 122.161C76.1681 122.147 76.4943 122.282 76.7631 122.747C77.7467 124.449 78.7582 126.133 79.7975 127.8C80.0663 128.232 80.0302 128.528 79.7762 128.937C78.7434 130.608 77.768 132.316 76.714 133.974C76.6013 134.13 76.457 134.261 76.2903 134.358C76.1237 134.455 75.9385 134.516 75.7468 134.536C73.6572 134.588 71.5666 134.588 69.4749 134.536C69.2828 134.514 69.0975 134.452 68.931 134.354C68.7644 134.256 68.6202 134.124 68.5077 133.967C67.4531 132.31 66.4417 130.626 65.4734 128.914C65.3936 128.741 65.3523 128.553 65.3523 128.362C65.3523 128.171 65.3936 127.983 65.4734 127.81C66.4395 126.1 67.4509 124.417 68.5077 122.759C68.6249 122.603 68.7725 122.473 68.9416 122.377C69.1107 122.28 69.2977 122.219 69.4913 122.197C70.5404 122.129 71.6109 122.171 72.6649 122.171Z" fill="white"/>
<path d="M124.292 91.3476C124.456 91.1562 124.669 91.014 124.909 90.9369C125.148 90.8597 125.405 90.8507 125.649 90.9107C135.497 92.6255 145.227 85.6861 146.826 75.8326C146.871 75.6285 146.929 75.4274 147 75.2304V69.9682C146.866 69.5759 146.757 69.176 146.672 68.7705C146.552 67.9851 146.344 67.2979 145.475 67.0213C144.606 66.7448 144.052 67.2652 143.508 67.8133C140.641 70.6784 137.757 73.5304 134.905 76.4102C134.467 76.8503 134.11 76.9812 133.495 76.762C131.444 76.0322 129.361 75.4006 127.312 74.6676C126.918 74.5079 126.603 74.2007 126.435 73.8118C125.676 71.7141 125.01 69.5804 124.264 67.4762C124.082 66.9608 124.199 66.6581 124.563 66.303C127.487 63.4085 130.39 60.491 133.312 57.5949C133.879 57.0336 134.328 56.4495 134.072 55.6052C133.816 54.7608 133.131 54.5776 132.385 54.4451C131.639 54.3125 130.856 54.1489 130.09 54H126.812C126.371 54.0753 125.928 54.1489 125.489 54.2291C115.222 56.0862 108.662 65.0938 110.122 75.3794C110.216 76.0339 110.058 76.4249 109.611 76.87C98.6931 87.7424 87.7869 98.6278 76.8922 109.526C76.4348 109.985 76.0119 110.145 75.3775 110.032C72.5298 109.523 69.5991 109.748 66.863 110.687C55.2356 114.594 50.4505 127.826 56.8634 138.259C63.1304 148.453 77.9856 149.922 86.1066 141.136C90.1502 136.761 91.7895 131.616 91.0245 125.701C90.9655 125.254 91.0245 124.616 91.3081 124.328C93.7277 121.828 96.2112 119.387 98.6849 116.929C98.8216 116.816 98.9663 116.713 99.1176 116.621C100.131 117.662 101.114 118.689 102.118 119.696C103.324 120.908 103.968 120.908 105.183 119.742C105.373 119.547 105.579 119.369 105.799 119.21C106.127 118.987 106.522 118.883 106.917 118.915C107.312 118.948 107.685 119.115 107.971 119.388C108.257 119.663 108.436 120.031 108.474 120.425C108.513 120.82 108.409 121.215 108.181 121.54C107.946 121.854 107.688 122.151 107.409 122.427C106.578 123.327 106.539 124.107 107.409 124.968C113.686 131.235 119.894 137.567 126.289 143.718C131.548 148.77 140.31 147.82 144.665 141.978C145.813 140.447 146.452 138.706 147.014 136.927V132.028C146.441 130.25 145.867 128.468 144.652 126.992C144.16 126.386 143.641 125.788 143.087 125.233C137.227 119.371 131.36 113.514 125.487 107.663C124.176 106.354 123.61 106.354 122.232 107.643C121.263 108.554 120.264 108.625 119.51 107.849C118.756 107.074 118.868 106.136 119.758 105.203C121.082 103.818 121.069 103.253 119.702 101.883C118.783 100.964 117.863 100.044 116.943 99.1231C116.894 99.058 116.851 98.9884 116.815 98.9153C116.951 98.7517 117.089 98.57 117.251 98.4064C119.589 96.0567 121.956 93.7169 124.292 91.3476ZM143.391 131.41C144.575 133.547 144.167 138.061 141.292 141.064C138.915 143.544 134.523 144.57 131.528 143.243L143.391 131.41ZM116.886 103.685C115.46 106.241 115.574 108.355 117.284 110.066C119.042 111.829 121.14 111.956 123.753 110.51L141.574 128.221L128.341 141.437C128.189 141.296 127.871 141.021 127.574 140.727C122.11 135.272 116.642 129.822 111.17 124.375C110.701 123.911 110.537 123.613 110.952 122.957C112.099 121.157 111.725 118.714 110.211 117.199C109.473 116.448 108.509 115.959 107.466 115.809C106.423 115.658 105.359 115.854 104.439 116.366C104.178 116.51 103.927 116.67 103.717 116.796L101.36 114.483L114.532 101.28L116.886 103.685ZM88.4164 122.756C87.6721 123.497 87.5541 124.256 87.7607 125.218C89.0721 131.57 86.5673 137.755 81.2576 141.371C72.0776 147.628 59.3289 142.382 57.1962 131.464C56.7796 129.376 56.7982 127.224 57.2506 125.143C57.703 123.063 58.5797 121.097 59.826 119.369C61.0723 117.641 62.6616 116.188 64.495 115.099C66.3283 114.011 68.3665 113.311 70.4826 113.043C72.2202 112.822 74.0382 113.074 75.8021 113.269C76.7856 113.377 77.525 113.282 78.261 112.55C89.7076 101.096 101.171 89.659 112.652 78.2379C113.414 77.4787 113.561 76.7227 113.361 75.7099C111.963 68.674 115.068 62.1289 121.381 58.8139C123.777 57.5172 126.519 57.0022 129.223 57.3412C126.713 59.8349 124.231 62.358 121.682 64.8042C120.812 65.6403 120.64 66.4568 121.027 67.5613C121.968 70.2366 122.863 72.9299 123.732 75.6297C124.028 76.5542 124.587 77.086 125.502 77.3805C128.236 78.2592 130.966 79.1575 133.679 80.1032C134.692 80.455 135.451 80.2963 136.208 79.5191C138.492 77.1792 140.829 74.8934 143.132 72.5732C143.357 72.3474 143.488 72.0283 143.803 71.8614C144.06 73.7548 143.869 75.682 143.246 77.4885C142.057 81.1192 139.554 84.177 136.227 86.0645C132.9 87.952 128.988 88.5335 125.254 87.6955C124.284 87.4844 123.582 87.6955 122.889 88.3909C111.406 99.8556 99.9154 111.31 88.4164 122.756Z" fill="#154A81"/>
<path d="M93.0856 88.9816C93.0167 88.9161 92.779 88.7034 92.5528 88.4776L92.1643 88.0898C85.9733 81.9146 79.7888 75.7322 73.6109 69.5428C73.1034 68.9991 72.7276 68.3464 72.5126 67.6349C72.065 66.2278 71.7765 64.7699 71.3929 63.3414C71.3224 63.0747 71.1749 62.7376 70.9602 62.6116C68.0094 60.8968 65.0358 59.2115 62.1605 57.5703L57.5508 62.1322C59.1901 65.0087 60.8802 67.972 62.6014 70.9156C62.7408 71.1545 63.1129 71.3149 63.408 71.3967C64.544 71.7141 65.68 72.0512 66.839 72.2557C68.1898 72.4848 69.1963 73.1508 70.152 74.1145C76.1354 80.1447 82.1461 86.1492 88.1841 92.1281L88.4579 92.4013C88.7073 92.6266 88.9695 92.8375 89.2431 93.033L93.379 88.705L93.0856 88.9816Z" fill="white"/>
<path d="M94.6543 86.195C89.3594 80.9181 84.1629 75.5381 78.7335 70.4018C76.4074 68.2011 74.8107 65.8203 74.4484 62.6558C74.2845 61.2732 73.5386 60.4321 72.3174 59.7613C68.9306 57.909 65.6127 55.9291 62.2685 54H61.3587C61.0573 54.1935 60.7703 54.4084 60.4998 54.6431C58.5424 56.5804 56.5933 58.5264 54.6524 60.4812C53.8787 61.265 53.8213 61.8458 54.3934 62.8472C56.3229 66.2343 58.2359 69.6312 60.2326 72.9773C60.5473 73.5058 61.2161 73.9591 61.8128 74.1603C63.2734 74.6398 64.8045 74.9065 66.2815 75.3433C66.852 75.5044 67.3757 75.7989 67.8093 76.2024C73.9763 82.3176 80.1258 88.4514 86.2579 94.6037C86.5087 94.8557 86.6464 95.2223 86.7333 95.3646L88.6873 93.6187L89.3004 93.0722L89.2479 93.0329C88.9743 92.8375 88.7122 92.6266 88.4627 92.4013L88.1889 92.1281C82.1695 86.1285 76.1588 80.124 70.1568 74.1145C69.2011 73.1508 68.1896 72.4783 66.8438 72.2557C65.6848 72.0577 64.5488 71.7141 63.4128 71.3967C63.1177 71.3149 62.7456 71.1545 62.6062 70.9156C60.885 67.9704 59.2014 65.0087 57.5556 62.1322L62.1653 57.5703C65.0406 59.2066 68.011 60.8968 70.965 62.6116C71.1797 62.7376 71.3272 63.0747 71.3977 63.3414C71.7813 64.7698 72.0698 66.2277 72.5174 67.6349C72.7325 68.3464 73.1082 68.9991 73.6157 69.5428C79.7794 75.7464 85.9639 81.9287 92.1691 88.0898L92.5576 88.4776C92.7839 88.7034 93.0216 88.9161 93.0904 88.9816L93.3822 88.705L95.3838 86.7988C95.1641 86.6221 94.8887 86.429 94.6543 86.195Z" fill="#154A81"/>
</g>
<defs>
<clipPath id="clip0_593_212">
<rect width="93" height="93" fill="white" transform="translate(54 54)"/>
</clipPath>
</defs>
</svg>
