<svg width="200" height="200" viewBox="0 0 200 200" fill="none" xmlns="http://www.w3.org/2000/svg">
<circle cx="100" cy="100" r="100"  fill="#F0B529" fill-opacity="none"/>
<g clip-path="url(#clip0_593_276)">
<path d="M136.124 73.6604C136.124 73.514 136.104 73.3653 136.09 73.1625C135.728 73.0408 135.36 72.9146 134.991 72.7975C132.414 71.9706 129.817 71.2023 127.263 70.3191C118.28 67.1859 109.606 63.2392 101.35 58.5287C100.708 58.1637 100.248 58.1727 99.6318 58.5445C98.3468 59.3196 97.0186 60.0293 95.6928 60.7368C86.1974 65.8204 76.1811 69.8773 65.8156 72.838C65.0632 73.0634 64.8593 73.381 64.8638 74.1336C64.8956 79.7663 64.8638 85.399 64.8842 91.0317C64.9069 97.7323 65.8859 104.275 68.2271 110.588C70.9595 117.985 75.3312 124.676 81.0183 130.165C85.8184 134.832 91.2167 138.664 97.4265 141.278C99.3506 142.086 101.232 142.348 103.181 141.431C104.024 141.034 104.901 140.712 105.739 140.304C111.726 137.364 117.115 133.35 121.636 128.464C130.626 118.873 135.44 107.493 135.968 94.4203C136.247 87.5146 136.088 80.5841 136.124 73.6604ZM124.566 118.093C124.572 118.007 124.572 117.921 124.566 117.834C124.57 117.921 124.569 118.007 124.561 118.093H124.566Z" fill="white"/>
<path d="M99.7478 146C85.9753 142.593 70.3353 128.108 64.6559 112.298C62.8201 107.193 61.4037 101.975 61.2427 96.5584C60.998 88.3234 61.0479 80.0816 60.9912 71.8399C60.9912 70.6322 61.4716 70.069 62.7725 69.7017C68.8585 68.0061 74.8372 65.9506 80.6766 63.5463C86.9309 60.953 92.9972 57.9327 98.8322 54.5069C99.9812 53.831 100.944 53.831 102.098 54.5069C113.311 61.0283 125.317 66.0968 137.824 69.589C139.617 70.0892 139.957 70.5556 139.955 72.3851C139.944 79.399 140.068 86.4151 139.885 93.4244C139.506 107.867 134.407 120.461 124.487 131.073C119.576 136.328 113.944 140.651 107.433 143.754C105.448 144.7 103.277 145.265 101.191 146.007L99.7478 146ZM136.068 73.1737C135.703 73.052 135.338 72.9259 134.969 72.8087C132.392 71.9818 129.795 71.2135 127.238 70.3303C118.259 67.193 109.587 63.2425 101.334 58.5287C100.695 58.1637 100.235 58.1727 99.6187 58.5444C98.3336 59.3195 97.0055 60.0292 95.6775 60.7367C86.1824 65.8211 76.166 69.8781 65.8003 72.838C65.0479 73.0633 64.8439 73.381 64.8484 74.1335C64.8824 79.7662 64.8484 85.3989 64.8711 91.0316C64.8938 97.7323 65.8706 104.275 68.2139 110.588C70.9457 117.986 75.3175 124.677 81.0051 130.165C85.803 134.831 91.1902 138.664 97.4135 141.278C99.3376 142.086 101.219 142.348 103.168 141.431C104.011 141.034 104.888 140.712 105.724 140.304C111.711 137.364 117.101 133.35 121.622 128.464C130.611 118.873 135.427 107.493 135.953 94.4203C136.231 87.5078 136.073 80.5773 136.109 73.6536C136.102 73.5139 136.082 73.3652 136.068 73.1737Z" fill="#154A81"/>
<path d="M85.6125 105.287C84.3116 103.888 82.6187 103.602 81.4719 104.784C79.9353 106.362 78.231 107.513 76.0757 108.081C75.2327 108.306 74.8497 109.106 75.0876 110.016C75.3256 110.926 75.9579 111.343 76.878 111.294C77.2621 111.286 77.6406 111.2 77.9908 111.043C79.8039 110.142 81.6169 109.178 83.5025 108.198C89.0573 112.81 94.8183 112.772 100.548 107.972C105.493 112.754 112.786 112.704 117.729 107.921C117.98 108.18 118.255 108.414 118.552 108.621C120.041 109.457 121.541 110.271 123.048 111.075C123.259 111.164 123.483 111.221 123.712 111.244C124.879 111.447 125.695 110.983 125.933 109.984C126.16 109.067 125.645 108.252 124.553 107.957C122.871 107.54 121.345 106.649 120.158 105.393C118.506 103.615 116.985 103.631 115.274 105.411C111.786 109.052 106.411 109.038 102.932 105.381C101.262 103.626 99.7341 103.631 98.0388 105.42C96.6473 106.889 94.9726 107.806 92.9464 108.033C90.0387 108.351 87.6001 107.42 85.6125 105.287Z" fill="#154A81"/>
<path d="M85.6125 92.5906C84.3116 91.1914 82.6187 90.9053 81.4719 92.0904C79.9353 93.6676 78.231 94.8166 76.0757 95.3844C75.2327 95.6097 74.8497 96.4096 75.0876 97.3221C75.3256 98.2346 75.9579 98.6469 76.878 98.5973C77.2618 98.589 77.6401 98.5047 77.9908 98.3495C79.8039 97.4347 81.6169 96.4817 83.5025 95.5016C89.0573 100.114 94.8183 100.075 100.548 95.2763C105.493 100.057 112.786 100.008 117.729 95.2244C117.98 95.4835 118.255 95.7182 118.552 95.9251C120.041 96.761 121.541 97.5744 123.048 98.3788C123.259 98.4692 123.483 98.5262 123.712 98.5477C124.879 98.7505 125.695 98.2864 125.933 97.2883C126.16 96.3713 125.645 95.5557 124.553 95.2605C122.871 94.8435 121.345 93.9533 120.158 92.6965C118.506 90.9211 116.985 90.9346 115.274 92.7145C111.786 96.3555 106.411 96.342 102.932 92.6852C101.262 90.9301 99.7341 90.9368 98.0388 92.7235C96.6473 94.1925 94.9726 95.1118 92.9464 95.3394C90.0387 95.657 87.6001 94.731 85.6125 92.5906Z" fill="#154A81"/>
<path d="M117.663 121.315L117.649 121.279C117.553 121.03 117.384 120.815 117.165 120.661C116.945 120.507 116.685 120.421 116.416 120.414C114.247 120.374 112.829 119.607 111.124 117.816C109.456 116.061 107.927 116.066 106.234 117.855C104.842 119.324 103.165 120.241 101.139 120.468C98.2312 120.795 95.7948 119.871 93.805 117.731C92.5041 116.332 90.8134 116.045 89.6644 117.228C88.1278 118.805 86.4236 119.954 84.2683 120.522C83.4253 120.748 83.0444 121.55 83.2801 122.46C83.5158 123.37 84.1505 123.787 85.0706 123.737C85.4554 123.729 85.8347 123.644 86.1856 123.487C87.9987 122.573 89.8118 121.622 91.6951 120.642C97.2499 125.254 103.011 125.215 108.742 120.416C111.009 122.613 113.049 123.641 115.857 123.796C116.162 123.812 116.468 123.752 116.744 123.621C117.02 123.489 117.259 123.291 117.439 123.045C117.619 122.798 117.733 122.51 117.772 122.208C117.811 121.906 117.774 121.599 117.663 121.315Z" fill="#154A81"/>
</g>
<defs>
<clipPath id="clip0_593_276">
<rect width="79" height="92" fill="white" transform="translate(61 54)"/>
</clipPath>
</defs>
</svg>

