<svg width="200" height="200" viewBox="0 0 200 200" fill="none" xmlns="http://www.w3.org/2000/svg">
<circle cx="100" cy="100" r="100" fill="#F0B529" fill-opacity="none"/>
<g clip-path="url(#clip0_593_214)">
<path d="M93.9379 152C92.5135 151.508 91.988 150.498 92.0539 148.981C92.1381 146.986 92.0539 144.986 92.0868 142.99C92.0978 142.364 91.933 142.058 91.3124 141.825C89.2691 141.033 87.2514 140.168 85.2575 139.259C84.7083 139.009 84.4043 139.003 83.9759 139.445C82.5221 140.981 81.0318 142.48 79.5414 143.978C78.2598 145.266 77.1796 145.283 75.9144 144.008C73.129 141.196 70.3551 138.372 67.5929 135.535C66.3607 134.269 66.3808 133.134 67.635 131.843C69.27 130.165 70.9307 128.488 72.4595 126.933C71.4818 124.389 70.5608 121.94 69.5813 119.515C69.4916 119.293 69.032 119.111 68.7427 119.105C66.65 119.072 64.5536 119.094 62.459 119.085C60.6281 119.085 59.8427 118.285 59.8262 116.436C59.8152 115.221 59.8262 114.013 59.8262 112.647C58.973 112.647 58.1875 112.666 57.4002 112.647C55.789 112.602 55.02 111.829 55.02 110.192C55.0017 106.638 55.02 103.086 55.009 99.5312C55.009 98.3663 55.5327 97.6171 56.5562 97.1772C57.5046 96.7709 58.4328 96.3049 59.4051 95.9732C60.1374 95.7197 60.3205 95.2947 60.3077 94.5492C60.2436 89.9287 60.6611 85.3661 62.0013 80.919C64.611 72.2596 69.4775 65.2224 76.601 59.8073C79.531 57.5743 82.7688 55.7937 86.2096 54.5234C86.9237 54.2606 87.1892 53.8934 87.1251 53.1274C87.0574 52.2532 87.094 51.3679 87.1123 50.4882C87.1471 48.8107 87.927 48.0093 89.5877 48.0037C93.3117 47.9888 97.0358 48.0037 100.756 48.0037C104.213 48.0037 107.67 48.0037 111.128 48.0037C113.014 48.0037 113.8 48.7977 113.836 50.6932C113.856 51.8115 113.492 53.1796 114.001 53.9661C114.51 54.7526 115.9 54.898 116.883 55.3696C128.709 61.0356 136.291 70.3045 139.526 83.1947C140.461 86.9224 140.703 90.7395 140.604 94.5753C140.586 95.2891 140.778 95.6749 141.461 95.921C142.461 96.2807 143.418 96.7616 144.4 97.1772C145.471 97.6282 146 98.4241 145.998 99.6151C145.989 103.1 145.998 106.588 145.989 110.073C145.989 111.818 145.191 112.615 143.495 112.653C142.763 112.669 142.043 112.653 141.157 112.653C141.157 113.844 141.157 114.945 141.157 116.047C141.157 118.388 140.472 119.092 138.208 119.092H131.726C130.64 121.588 129.589 123.951 128.604 126.342C128.502 126.588 128.701 127.088 128.919 127.327C130.347 128.838 131.825 130.309 133.277 131.8C134.641 133.199 134.648 134.251 133.293 135.636C130.573 138.418 127.846 141.193 125.113 143.963C123.789 145.305 122.733 145.305 121.42 143.963C119.955 142.489 118.49 141.015 117.055 139.503C116.619 139.043 116.295 138.989 115.7 139.263C113.708 140.18 111.683 141.024 109.647 141.829C109.098 142.043 108.871 142.258 108.884 142.882C108.926 144.912 108.9 146.943 108.898 148.973C108.898 150.854 108.589 151.318 106.906 151.998L93.9379 152ZM141.807 108.34C141.807 106.83 141.82 105.415 141.807 104.003C141.796 102.925 142.115 101.602 141.624 100.834C141.133 100.066 139.833 99.7661 138.832 99.4455C136.975 98.8491 136.335 97.6599 136.422 95.7029C136.595 91.8429 136.404 87.9941 135.494 84.2124C133.35 75.307 128.626 68.1753 121.325 62.8174C119.033 61.1307 116.532 59.7589 113.888 58.7375V89.3659C113.888 91.6938 113.199 92.4002 110.916 92.402H90.0601C87.7513 92.402 87.1086 91.7385 87.1086 89.3752V58.7412C86.7076 58.8997 86.4367 58.9984 86.1712 59.114C80.7884 61.4346 76.0624 65.0909 72.4247 69.749C68.1147 75.2473 65.4819 81.4912 64.8136 88.5067C64.5664 91.0918 64.5756 93.7086 64.5573 96.3105C64.5481 97.7494 64.008 98.6813 62.6714 99.1827C61.7377 99.5312 60.8515 100.006 59.9251 100.361C59.3758 100.569 59.1725 100.866 59.1927 101.479C59.2348 103.069 59.2055 104.659 59.2055 106.25V108.347L141.807 108.34ZM129.174 133.606C127.759 132.167 126.279 130.667 124.805 129.164C123.416 127.748 123.306 127.047 124.329 125.334C125.783 122.907 126.879 120.276 127.581 117.525C128.207 115.083 128.562 114.818 131.014 114.818H136.856V112.707H117.725C117.646 113.042 117.562 113.333 117.511 113.639C116.108 121.942 108.878 128.176 100.626 128.214C92.1455 128.244 84.8804 122.126 83.4157 113.676C83.2729 112.852 82.9909 112.647 82.2146 112.651C76.4966 112.681 70.7787 112.667 65.0608 112.669C64.7367 112.669 64.4126 112.697 64.0647 112.712V114.83H70.0921C72.3222 114.83 72.6554 115.221 73.3878 117.381C74.175 119.735 75.0172 122.104 76.1487 124.298C77.7837 127.466 77.9064 127.405 75.3834 129.971C74.1714 131.203 72.9538 132.428 71.8644 133.528L77.8643 139.613C79.351 138.092 80.911 136.478 82.491 134.884C83.4065 133.966 84.2762 133.74 85.2759 134.363C88.1997 136.175 91.3817 137.516 94.7087 138.336C95.6516 138.573 96.1442 139.281 96.2412 140.247C96.2837 140.785 96.2995 141.326 96.2888 141.866C96.2888 143.784 96.2888 145.702 96.2888 147.644H104.7C104.7 145.311 104.689 143.05 104.7 140.787C104.7 139.345 105.178 138.644 106.558 138.301C109.692 137.525 112.688 136.256 115.436 134.54C116.634 133.794 117.467 133.941 118.485 134.955C119.887 136.353 121.261 137.777 122.652 139.186C122.854 139.389 123.081 139.559 123.273 139.745L129.174 133.606ZM109.546 52.3595H91.3453V88.0332H109.546V52.3595ZM113.302 112.748H87.5993C88.5916 119.295 94.5568 124.249 100.943 123.91C107.263 123.567 113.064 118.358 113.307 112.74L113.302 112.748Z" fill="#154A81"/>
<path d="M141.807 108.34H59.1891V106.243C59.1891 104.651 59.2183 103.061 59.1762 101.472C59.1598 100.866 59.3593 100.569 59.9086 100.353C60.8405 99.9991 61.7267 99.5239 62.655 99.1753C63.9897 98.674 64.5317 97.742 64.5408 96.3032C64.5591 93.6938 64.5408 91.0844 64.7971 88.4993C65.4654 81.4801 68.0928 75.24 72.4082 69.7417C76.0459 65.0835 80.7719 61.4272 86.1547 59.1067C86.4202 58.9911 86.6912 58.8923 87.0921 58.7339V89.3734C87.0921 91.7368 87.7348 92.3984 90.0436 92.4003H110.89C113.173 92.4003 113.86 91.692 113.862 89.3641V58.7432C116.506 59.7646 119.007 61.1364 121.299 62.8231C128.596 68.1798 133.319 75.3114 135.469 84.2181C136.384 87.9998 136.567 91.8486 136.397 95.7086C136.309 97.6656 136.946 98.8547 138.806 99.4512C139.808 99.7717 141.102 100.077 141.598 100.84C142.095 101.602 141.782 102.925 141.782 104.008C141.82 105.415 141.807 106.83 141.807 108.34Z" fill="white"/>
<path d="M129.18 133.602L123.271 139.736C123.079 139.566 122.852 139.388 122.651 139.177C121.259 137.768 119.886 136.344 118.483 134.946C117.465 133.932 116.632 133.785 115.435 134.53C112.686 136.247 109.69 137.516 106.557 138.292C105.176 138.635 104.706 139.335 104.698 140.778C104.684 143.041 104.698 145.302 104.698 147.635H96.2872C96.2872 145.695 96.2872 143.777 96.2872 141.857C96.298 141.317 96.2821 140.776 96.2396 140.237C96.1426 139.272 95.65 138.56 94.7071 138.327C91.3801 137.503 88.1986 136.158 85.2761 134.342C84.2764 133.72 83.4049 133.945 82.4913 134.864C80.9112 136.458 79.3512 138.072 77.8645 139.593L71.8646 133.507C72.954 132.408 74.1716 131.183 75.3837 129.951C77.9067 127.384 77.784 127.448 76.149 124.277C75.0175 122.084 74.1753 119.715 73.388 117.361C72.6684 115.201 72.3279 114.809 70.0923 114.809H64.0649V112.692C64.4128 112.677 64.7369 112.649 65.061 112.649C70.7789 112.649 76.4969 112.66 82.2148 112.63C82.9911 112.63 83.2731 112.832 83.4159 113.655C84.8806 122.11 92.1402 128.227 100.626 128.193C108.878 128.164 116.109 121.922 117.511 113.618C117.562 113.32 117.647 113.029 117.725 112.686H136.862V114.798H131.02C128.568 114.798 128.213 115.063 127.587 117.504C126.884 120.256 125.789 122.887 124.335 125.314C123.311 127.027 123.419 127.727 124.811 129.144C126.285 130.667 127.764 132.167 129.18 133.602Z" fill="white"/>
<path d="M109.552 52.3594V88.0331H91.3508V52.3594H109.552Z" fill="white"/>
<path d="M113.307 112.74C113.064 118.358 107.265 123.567 100.943 123.903C94.555 124.242 88.5917 119.288 87.5994 112.74H113.307Z" fill="white"/>
</g>
<defs>
<clipPath id="clip0_593_214">
<rect width="91" height="104" fill="white" transform="translate(55 48)"/>
</clipPath>
</defs>
</svg>
