<svg width="200" height="200" viewBox="0 0 200 200" fill="none" xmlns="http://www.w3.org/2000/svg">
<circle cx="100" cy="100" r="100" fill="#1A365D" fill-opacity="0.19"/>
<g clip-path="url(#clip0_593_215)">
<path d="M132.017 51H133.564C134.654 51.5136 135.884 51.8528 136.8 52.5845C138.152 53.6796 139.381 54.9184 140.466 56.2791C141.987 58.1713 142.176 60.3687 141.091 62.5346C140.626 63.4601 139.848 64.2305 139.153 65.03C138.458 65.8295 137.657 66.5515 136.746 67.4528C138.441 67.4528 139.873 67.3413 141.275 67.4843C142.631 67.6199 144.072 67.7798 145.28 68.3443C148.6 69.8925 150.007 72.7052 150.005 76.3175C150.005 95.785 150.005 115.252 150.005 134.72C150.005 135.655 150.005 136.588 150.005 137.523C149.954 142.238 146.324 145.68 142.227 145.801C140.166 145.864 138.11 145.874 136.044 145.864C134.252 145.864 133.533 145.116 133.525 143.323C133.525 140.416 133.525 137.523 133.525 134.621V133.576H115.363C115.569 133.819 115.666 133.928 115.77 134.037C117.465 135.822 117.465 136.564 115.704 138.318L105.177 148.844C103.652 150.366 102.693 150.371 101.179 148.844C96.3021 143.968 91.4305 139.087 86.5646 134.201C86.3392 133.959 86.0636 133.768 85.7571 133.642C85.4506 133.517 85.1204 133.46 84.7895 133.475C78.6352 133.499 72.4818 133.499 66.3292 133.475C65.5255 133.499 64.7218 133.424 63.9366 133.252C60.9724 132.481 59.2967 130.155 59.2894 126.848C59.2716 120.628 59.2757 114.41 59.3015 108.193C59.3284 107.799 59.2656 107.404 59.118 107.037C58.9704 106.67 58.7417 106.342 58.4491 106.076C56.858 104.571 55.3179 103.009 53.7946 101.436C52.826 100.448 51.9421 99.3989 51.0194 98.3789V97.4098C51.4117 96.8696 51.7459 96.2711 52.2036 95.7987C54.3201 93.6344 56.4601 91.4919 58.6234 89.3712C58.8464 89.1696 59.0222 88.9215 59.1385 88.6443C59.2549 88.3671 59.3089 88.0677 59.2966 87.7673C59.27 83.2562 59.2434 78.7427 59.3136 74.2316C59.3047 73.1115 59.523 72.0013 59.9554 70.9681C61.1371 68.4049 63.3602 67.4431 66.0943 67.4455C81.6849 67.4455 97.2756 67.4503 112.866 67.46C113.165 67.4752 113.464 67.4245 113.742 67.3115C114.019 67.1984 114.268 67.0259 114.472 66.8059C118.693 62.5492 122.948 58.3263 127.161 54.0672C128.542 52.662 129.997 51.4046 132.017 51ZM63.3917 84.5039C64.864 83.5906 65.9005 84.1599 66.9394 85.2017C81.3919 99.6896 95.8533 114.171 110.324 128.646C110.547 128.889 110.821 129.08 111.126 129.205C111.431 129.331 111.759 129.388 112.089 129.373C121.722 129.351 131.358 129.337 140.991 129.373C142.227 129.373 143.462 129.71 144.689 129.935C145.092 130.053 145.483 130.21 145.857 130.403C145.871 130.092 145.886 129.901 145.886 129.707C145.886 111.881 145.886 94.0543 145.886 76.2279C145.886 73.2528 144.246 71.6247 141.284 71.5908C138.771 71.5714 136.257 71.615 133.746 71.569C133.382 71.5476 133.019 71.6076 132.682 71.7447C132.344 71.8817 132.042 72.0924 131.796 72.3612C124.775 79.4259 117.739 86.4736 110.687 93.5044C109.764 94.4274 108.815 95.3239 107.757 96.3487H125.193V100.487H124.466C114.574 100.487 104.682 100.487 94.7885 100.487C92.8197 100.487 91.8971 99.2244 92.5098 97.3638C93.786 93.4874 95.0598 89.5965 96.4062 85.7347C96.6894 84.9216 97.1426 84.1782 97.7357 83.5542C101.368 79.8474 105.054 76.1964 108.72 72.5236C108.963 72.2813 109.18 72.0245 109.592 71.5763H66.4866C66.1002 71.5677 65.7136 71.5823 65.329 71.6199C64.1957 71.7556 63.4377 72.4242 63.4207 73.5581C63.3626 77.1873 63.3917 80.7899 63.3917 84.5039ZM89.6352 113.979L85.5184 118.296L82.5567 115.389L86.8261 111.212L81.4524 105.829L77.2799 110.04L74.2916 107.224C75.7785 105.771 77.2412 104.351 78.5876 103.038L73.0686 97.5237L68.993 101.776L65.9538 98.8683L70.2644 94.7279L64.7938 89.2525L56.1993 97.8459L103.129 144.798L111.796 136.152L106.279 130.63L102.148 134.846L99.0313 131.788C100.441 130.403 101.901 128.973 103.262 127.633L97.9924 122.357L93.7424 126.652C92.7543 125.661 91.8293 124.729 90.8122 123.706L95.13 119.469L89.6352 113.979ZM129.682 68.5842L124.202 63.0919C116.743 70.5611 109.214 78.0958 101.763 85.5554L107.217 91.0695L129.682 68.5842ZM81.1546 129.337L63.3747 111.549C63.3747 116.44 63.3747 121.528 63.3747 126.618C63.3747 128.663 64.0625 129.363 66.0846 129.363C70.9166 129.363 75.7478 129.363 80.5782 129.363C80.8567 129.363 81.1304 129.337 81.1546 129.337ZM132.915 65.4661C134.25 64.1264 135.608 62.8011 136.916 61.4347C137.831 60.4656 137.865 59.4602 137.003 58.5105C136.141 57.5608 135.182 56.6038 134.208 55.7171C133.387 54.966 132.349 54.874 131.588 55.5959C130.108 57.0084 128.731 58.5298 127.374 59.9399L132.915 65.4661ZM137.688 133.571V141.714C139.255 141.714 140.769 141.799 142.265 141.692C144.232 141.552 145.842 139.718 145.849 137.789C145.849 135.57 144.396 133.76 142.287 133.596C140.788 133.477 139.274 133.571 137.688 133.571ZM99.426 89.6353C98.8424 91.3893 98.2467 93.1894 97.5928 95.1591L103.114 93.3106L99.426 89.6353Z" fill="#154A81"/>
<path d="M63.3916 84.5039C63.3916 80.7898 63.3601 77.1872 63.411 73.5871C63.4279 72.4532 64.1859 71.7845 65.3192 71.6489C65.7039 71.6113 66.0904 71.5967 66.4768 71.6053H109.582C109.171 72.0535 108.95 72.3127 108.711 72.5525C105.044 76.2254 101.356 79.8765 97.7259 83.5832C97.1329 84.2073 96.6797 84.9506 96.3965 85.7637C95.05 89.6207 93.7762 93.5164 92.5 97.3928C91.8873 99.2535 92.81 100.516 94.7788 100.516C104.67 100.516 114.563 100.516 124.456 100.516H125.183V96.3777H107.747C108.805 95.3528 109.754 94.4564 110.677 93.5334C117.719 86.4929 124.756 79.4452 131.787 72.3902C132.032 72.1214 132.335 71.9107 132.672 71.7737C133.009 71.6366 133.373 71.5766 133.736 71.598C136.247 71.644 138.761 71.598 141.275 71.6198C144.236 71.644 145.876 73.2818 145.876 76.2569C145.876 94.0833 145.876 111.91 145.876 129.736C145.876 129.93 145.861 130.121 145.847 130.432C145.474 130.239 145.083 130.082 144.68 129.964C143.452 129.739 142.217 129.409 140.982 129.402C131.348 129.356 121.713 129.37 112.079 129.402C111.75 129.417 111.421 129.36 111.116 129.234C110.811 129.109 110.537 128.918 110.314 128.675C95.858 114.187 81.3967 99.7057 66.9296 85.2307C65.9004 84.1598 64.864 83.5905 63.3916 84.5039ZM129.44 96.4189V100.433H133.448V96.4189H129.44ZM137.708 96.4043V100.421H141.662V96.4043H137.708Z" fill="white"/>
<path d="M89.6352 113.979L95.1251 119.469L90.8073 123.706C91.8244 124.728 92.7447 125.661 93.7375 126.652L97.9875 122.356L103.262 127.619C101.901 128.958 100.441 130.388 99.0313 131.774L102.148 134.831L106.279 130.616L111.796 136.137L103.129 144.784L56.1993 97.8312L64.7938 89.2378L70.2643 94.7132L65.9538 98.8536L68.993 101.761L73.0686 97.509L78.5876 103.023C77.2412 104.336 75.7785 105.763 74.2916 107.21L77.2799 110.025L81.4524 105.814L86.8261 111.197L82.5567 115.374L85.5184 118.281L89.6352 113.979Z" fill="white"/>
<path d="M129.682 68.5841L107.217 91.0695L101.763 85.5553C109.214 78.0958 116.743 70.5611 124.202 63.0918L129.682 68.5841Z" fill="white"/>
<path d="M81.1545 129.337C81.1303 129.337 80.8566 129.363 80.5805 129.363C75.7501 129.363 70.9189 129.363 66.0869 129.363C64.0648 129.363 63.3771 128.663 63.3771 126.618C63.3771 121.53 63.3771 116.443 63.3771 111.549L81.1545 129.337Z" fill="white"/>
<path d="M132.915 65.466L127.374 59.9397C128.731 58.5297 130.108 57.0082 131.588 55.5958C132.348 54.8689 133.387 54.9659 134.208 55.7169C135.177 56.6036 136.117 57.5363 137.003 58.5103C137.889 59.4842 137.831 60.4776 136.916 61.4345C135.608 62.8058 134.249 64.1262 132.915 65.466Z" fill="white"/>
<path d="M137.688 133.571C139.274 133.571 140.788 133.477 142.289 133.596C144.396 133.76 145.861 135.57 145.852 137.789C145.852 139.727 144.234 141.552 142.268 141.692C140.771 141.799 139.257 141.714 137.691 141.714L137.688 133.571Z" fill="white"/>
<path d="M99.4235 89.6353L103.112 93.3105L97.5903 95.1591C98.2345 93.1991 98.8399 91.3893 99.4235 89.6353Z" fill="white"/>
<path d="M129.44 96.4189H133.448V100.433H129.44V96.4189Z" fill="#154A81"/>
<path d="M137.708 96.4043H141.662V100.421H137.708V96.4043Z" fill="#154A81"/>
</g>
<defs>
<clipPath id="clip0_593_215">
<rect width="99" height="99" fill="white" transform="translate(51 51)"/>
</clipPath>
</defs>
</svg>
