<svg width="200" height="200" viewBox="0 0 200 200" fill="none" xmlns="http://www.w3.org/2000/svg">
<circle cx="100" cy="100" r="100" fill="#F0B529" fill-opacity="none"/>
<g clip-path="url(#clip0_593_211)">
<path d="M141.576 96.9975C140.999 92.3298 140.452 87.6595 139.893 82.9893C139.064 76.0821 138.233 69.174 137.401 62.2651C137.247 60.9839 137.092 59.7044 136.934 58.4266C136.606 55.7557 134.549 53.9294 131.773 53.9062C129.095 53.8855 126.415 53.9062 123.737 53.9062H68.8606C65.3109 53.9062 63.4631 55.4224 63.0283 58.8786C62.1508 65.853 61.3423 72.8274 60.5045 79.8018C59.6721 86.709 58.8388 93.6171 58.0046 100.526C57.181 107.402 56.36 114.279 55.5418 121.157C55.3747 122.565 55.2051 123.97 55.0115 125.378C54.6165 128.416 56.8673 131.061 60.0141 131.081C71.0929 131.115 82.1716 131.081 93.253 131.081C93.3829 131.081 93.5181 131.05 93.7196 131.027V127.411H62.6837C59.9637 127.411 58.7389 125.993 59.0624 123.35C60.0963 114.878 61.0984 106.4 62.1217 97.9248C63.0778 90.0033 64.0419 82.0732 65.014 74.1344C65.5636 69.6243 66.1097 65.1151 66.6523 60.6067C66.8882 58.6668 68.0839 57.6 70.0987 57.5974C78.7977 57.5871 87.4967 57.5871 96.1957 57.5974C96.31 57.5976 96.4242 57.6045 96.5377 57.6181H103.377C103.627 57.5987 103.877 57.5935 104.128 57.6026H129.53C132.03 57.6026 133.098 58.4912 133.393 60.9089C134.453 69.5727 135.504 78.239 136.545 86.9078C137.573 95.3804 138.605 103.854 139.639 112.328C140.11 116.203 140.588 120.077 141.038 123.939C141.261 125.858 139.84 127.395 137.825 127.413C135.278 127.439 132.73 127.413 130.185 127.413H129.042V131.056C129.326 131.071 129.572 131.097 129.838 131.097C133.146 131.097 136.452 131.115 139.76 131.097C143.143 131.074 145.381 128.473 144.97 125.218C144.116 118.409 143.318 111.595 142.499 104.783C142.475 104.589 142.465 104.398 142.457 104.204C142.457 104.14 142.457 104.083 142.457 104.021C142.239 102.236 141.948 99.8647 141.637 97.3307C141.61 97.2209 141.59 97.1096 141.576 96.9975Z" fill="white"/>
<path d="M93.2212 60.5033C92.9047 60.5215 92.5872 60.5138 92.2721 60.4801H69.6506C67.0738 81.8139 64.4996 103.101 61.9202 124.438H76.1033C76.1033 123.02 76.1033 121.612 76.1033 120.201C76.1457 115.614 78.02 111.886 81.7978 109.151C83.3504 108.032 85.125 107.241 87.0086 106.827C88.8921 106.413 90.8435 106.386 92.7386 106.747C94.6336 107.107 96.4308 107.849 98.0159 108.923C99.6011 109.997 100.939 111.381 101.946 112.987C102.118 113.245 102.285 113.534 102.505 113.893C102.696 113.596 102.852 113.377 103.001 113.119C106.294 107.841 112.677 105.336 118.671 106.968C121.612 107.756 124.209 109.458 126.064 111.816C127.92 114.174 128.934 117.059 128.952 120.031C128.968 121.475 128.952 122.921 128.952 124.422H138.077C135.5 103.099 132.931 81.8423 130.347 60.4697H129.13C120.843 60.4826 101.522 60.5059 93.2212 60.5033ZM124.848 97.1472C124.896 98.0384 124.318 98.6273 123.218 98.7126C121.864 98.8378 120.499 98.6948 119.203 98.2922C117.908 97.8895 116.71 97.2356 115.681 96.3697C115.416 96.145 115.151 95.9125 114.886 95.6852C110.26 100.014 103.966 99.5082 100.008 95.6542C97.9665 97.6328 95.5011 98.7539 92.5849 98.7539C89.6687 98.7539 87.2483 97.6923 85.1779 95.6542C84.8889 95.9125 84.6238 96.1346 84.3507 96.3594C83.3375 97.216 82.1591 97.8671 80.8846 98.2747C79.61 98.6823 78.2649 98.8382 76.9278 98.7332C75.7454 98.6583 75.1383 98.0952 75.1728 97.1834C75.2073 96.2715 75.8435 95.7756 77.0577 95.8428C78.216 95.9315 79.3797 95.7541 80.4548 95.3247C81.53 94.8954 82.4867 94.2261 83.2479 93.3707C84.4091 92.136 85.8486 92.1437 87.0495 93.3345C90.4694 96.7236 94.7217 96.7339 98.1044 93.3604C99.3106 92.1567 100.71 92.1489 101.911 93.3397C105.326 96.7236 109.615 96.7288 112.969 93.3552C114.159 92.1541 115.62 92.1179 116.768 93.3552C118.47 95.1634 120.535 95.9952 123.046 95.8453C124.175 95.7627 124.801 96.2534 124.848 97.1472ZM123.443 85.5465C123.361 86.4222 122.717 86.8665 121.574 86.8019C119.31 86.6694 117.159 85.7893 115.477 84.3066L114.901 83.821C108.923 87.8971 105.154 87.8997 99.9734 83.7848C97.9295 85.7273 95.4666 86.851 92.5505 86.8406C89.6343 86.8303 87.2244 85.7712 85.1434 83.7409C83.5527 85.2365 81.766 86.2801 79.6213 86.6495C79.1348 86.7389 78.642 86.7925 78.1473 86.8096C77.2326 86.8329 76.6388 86.3498 76.5566 85.5672C76.4638 84.7225 76.941 84.131 77.8822 83.9605C78.301 83.883 78.7385 83.8856 79.1573 83.8003C80.6565 83.4965 82.017 82.7345 83.0411 81.6253C84.4303 80.1607 85.785 80.1581 87.1874 81.5969C90.2838 84.7664 94.8436 84.7483 97.9612 81.5504C99.2868 80.1995 100.668 80.1891 101.98 81.5272C105.161 84.769 109.668 84.7793 112.82 81.5478C114.146 80.1969 115.543 80.1762 116.829 81.5478C118.086 82.9418 119.855 83.7982 121.754 83.9321C122.961 84.0147 123.528 84.6295 123.443 85.5465ZM102.102 69.6553C105.103 72.755 109.737 72.755 112.744 69.6811C114.215 68.1777 115.53 68.1648 116.956 69.6656C117.979 70.728 119.294 71.4805 120.744 71.8328C121.686 72.0911 122.12 72.7705 121.932 73.5454C121.728 74.3875 121.025 74.7801 120.018 74.6096C119.821 74.5908 119.628 74.5429 119.445 74.4676C118.146 73.7856 116.853 73.1011 115.57 72.4011C115.315 72.2266 115.078 72.0285 114.862 71.8096C110.62 75.8547 104.311 75.8934 100.048 71.8535C95.1087 75.9167 90.1406 75.9477 85.3528 72.0524C83.7251 72.879 82.1716 73.6849 80.6021 74.4572C80.2991 74.5895 79.9717 74.6607 79.6398 74.6665C79.2899 74.7137 78.9349 74.6282 78.6478 74.4278C78.3607 74.2274 78.1635 73.9273 78.0969 73.5893C77.8928 72.8144 78.2215 72.1402 78.9505 71.9516C80.8063 71.4712 82.2776 70.5051 83.6005 69.167C84.592 68.1674 86.0501 68.4102 87.1715 69.5907C88.8867 71.3988 90.9863 72.1738 93.4942 71.9155C95.1855 71.727 96.7473 70.9413 97.8844 69.7069C99.3451 68.1777 100.665 68.1725 102.102 69.6475V69.6553Z" fill="white"/>
<path d="M147.936 125.001C147.255 119.698 146.659 114.382 146.028 109.073C145.879 107.831 145.739 106.586 145.585 105.343C145.585 105.292 145.585 105.243 145.585 105.188C145.145 101.435 143.697 89.7724 143.172 85.4121C143.151 85.239 143.133 85.0737 143.114 84.9239C142.04 75.9373 140.993 66.9455 139.88 57.9614C139.517 55.0193 137.857 52.9115 135.108 51.6638C134.488 51.3849 133.814 51.2196 133.167 51H66.8803C66.7759 51.0704 66.6627 51.1276 66.5436 51.1705C62.7711 52.0978 60.5522 54.5776 60.1042 58.3437C59.4997 63.4307 58.8882 68.516 58.2697 73.5996C57.4355 80.5412 56.6013 87.4812 55.7671 94.4194C55 100.791 54.2347 107.156 53.4712 113.514C52.994 117.481 52.4692 121.441 52.0556 125.414C51.5705 130.089 55.3535 133.969 60.3772 133.98C71.0928 133.997 81.8084 133.997 92.5239 133.98H93.8282V135.196C93.8282 139.192 93.8282 143.188 93.8282 147.184C93.8282 148.993 94.8595 149.974 96.7232 149.992C97.948 149.992 99.1701 149.992 100.395 149.992C102.943 149.992 103.47 149.605 104.157 147.2H118.618C118.671 147.323 118.716 147.449 118.753 147.577C119.172 149.385 119.96 149.984 121.874 149.99C123.198 149.99 124.523 149.99 125.85 149.99C127.995 149.99 128.979 149.018 128.981 146.89C128.981 142.958 128.981 139.027 128.981 135.095V133.967H130.161C133.504 133.967 136.844 134.016 140.182 133.943C144.983 133.856 148.533 129.666 147.936 125.001ZM93.815 124.461H86.4504C86.4504 122.74 86.2542 120.997 86.5034 119.313C86.7844 117.43 88.5261 116.332 90.3951 116.471C92.2032 116.616 93.5764 117.964 93.7885 119.811C93.8159 120.164 93.8248 120.519 93.815 120.873C93.8177 122.04 93.815 123.193 93.815 124.461ZM101.021 146.523C101.021 146.678 100.997 146.833 100.978 147.063H96.7922V145.914C96.7922 137.441 96.7922 128.97 96.7922 120.501C96.7922 117.176 94.9152 114.645 91.8824 113.803C90.9093 113.535 89.8867 113.485 88.891 113.657C87.8954 113.829 86.9524 114.218 86.1327 114.794C85.313 115.371 84.6377 116.121 84.1574 116.988C83.6772 117.855 83.4043 118.817 83.3592 119.801C83.3009 121.312 83.3592 122.826 83.3592 124.42H79.2289C78.7411 118.995 79.0221 114.676 84.0008 111.284C87.4472 108.936 91.2276 108.701 94.9868 110.564C98.746 112.426 100.941 115.523 100.997 119.661C101.095 128.614 101.018 137.583 101.021 146.523ZM119.779 144.224C119.485 144.256 119.188 144.268 118.891 144.26H104.045V140.623C104.395 140.605 104.743 140.572 105.087 140.572C109.682 140.572 114.272 140.572 118.857 140.572C119.252 140.562 119.646 140.599 120.031 140.683C120.45 140.787 120.819 141.031 121.073 141.372C121.327 141.713 121.451 142.13 121.423 142.55C121.394 142.973 121.213 143.372 120.912 143.677C120.612 143.983 120.211 144.177 119.779 144.224ZM104.072 137.604V134.044H118.671V137.604H104.072ZM121.418 129.428C121.376 129.865 121.173 130.273 120.846 130.575C120.518 130.877 120.089 131.052 119.639 131.068C118.881 131.107 118.12 131.084 117.362 131.084H104.056V127.468C104.358 127.447 104.642 127.406 104.926 127.406C109.618 127.406 114.309 127.406 118.997 127.406C119.327 127.397 119.656 127.426 119.978 127.493C120.416 127.595 120.802 127.845 121.067 128.201C121.331 128.556 121.455 128.991 121.418 129.428ZM111.344 119.589C111.492 117.781 113.263 116.399 115.119 116.464C116.036 116.48 116.913 116.832 117.574 117.451C118.236 118.07 118.633 118.909 118.687 119.801C118.764 121.178 118.716 122.562 118.719 123.934C118.709 124.107 118.69 124.279 118.661 124.451H111.317C111.32 122.782 111.217 121.175 111.346 119.589H111.344ZM125.999 147.04H121.55C121.762 146.806 121.989 146.586 122.229 146.381C125.158 144.255 125.145 140.603 122.216 138.451C121.947 138.207 121.776 137.877 121.733 137.521C121.656 136.953 121.757 136.361 121.704 135.785C121.582 134.463 121.839 133.46 123.011 132.471C125.198 130.611 124.814 127.168 122.431 125.497C122.185 125.349 121.986 125.138 121.857 124.887C121.727 124.635 121.673 124.353 121.699 124.073C121.731 122.593 121.749 121.108 121.67 119.63C121.555 117.974 120.795 116.424 119.546 115.295C118.297 114.167 116.653 113.546 114.95 113.559C113.246 113.573 111.613 114.22 110.383 115.368C109.153 116.516 108.419 118.079 108.332 119.736C108.274 121.286 108.332 122.818 108.332 124.471H104.091C103.799 120.119 103.855 115.916 107.314 112.566C110.495 109.487 115.119 108.495 119.202 110.241C123.589 112.114 125.922 115.503 125.978 120.157C126.07 128.049 126.004 135.94 126.004 143.832L125.999 147.04ZM128.973 124.435C128.973 122.929 128.973 121.483 128.973 120.044C128.956 117.072 127.942 114.187 126.086 111.829C124.23 109.471 121.633 107.768 118.692 106.981C112.698 105.348 106.315 107.854 103.022 113.131C102.874 113.372 102.717 113.604 102.526 113.906C102.306 113.547 102.139 113.271 101.967 113C100.961 111.394 99.6223 110.01 98.0372 108.936C96.452 107.861 94.6548 107.12 92.7597 106.759C90.8647 106.399 88.9134 106.426 87.0298 106.84C85.1462 107.254 83.3717 108.045 81.819 109.164C78.0413 111.899 76.167 115.621 76.1245 120.214C76.1113 121.625 76.1245 123.032 76.1245 124.451H61.9414C64.5209 103.104 67.095 81.8293 69.6719 60.4929H92.2933C92.6085 60.5266 92.9259 60.5344 93.2424 60.5161C101.543 60.5161 120.864 60.4955 129.164 60.4955H130.381C132.966 81.868 135.535 103.117 138.111 124.448L128.973 124.435ZM139.763 131.079C136.455 131.102 133.149 131.079 129.84 131.079C129.575 131.079 129.329 131.053 129.045 131.037V127.395H130.187C132.733 127.395 135.28 127.413 137.828 127.395C139.843 127.377 141.274 125.845 141.041 123.921C140.59 120.046 140.113 116.172 139.641 112.31C138.613 103.837 137.581 95.3639 136.547 86.8896C135.487 78.2224 134.436 69.5561 133.395 60.8907C133.101 58.4729 132.033 57.5843 129.533 57.5843H127.163L103.38 57.6024H96.5403C96.4268 57.5888 96.3126 57.5819 96.1983 57.5817C87.5011 57.5817 78.8021 57.5817 70.1013 57.5817C68.0918 57.5817 66.8962 58.6511 66.6549 60.591C66.107 65.0994 65.5609 69.6087 65.0166 74.1188C64.0534 82.0489 63.0893 89.979 62.1243 97.9091C61.101 106.384 60.0989 114.862 59.065 123.335C58.7415 125.977 59.9663 127.393 62.6863 127.395H93.7355V131.012C93.5287 131.035 93.3988 131.066 93.2689 131.066C82.1875 131.066 71.1087 131.087 60.0299 131.066C56.8911 131.066 54.6324 128.4 55.0274 125.362C55.2103 123.955 55.38 122.549 55.5576 121.142C56.3795 114.265 57.2004 107.388 58.0205 100.51C58.8511 93.6014 59.6844 86.6933 60.5204 79.7861C61.3581 72.8117 62.1667 65.8373 63.0442 58.8629C63.4816 55.4068 65.3294 53.8905 68.8765 53.8905H123.753C126.431 53.8905 129.111 53.875 131.789 53.8905C134.559 53.9137 136.622 55.74 136.95 58.4109C137.108 59.6904 137.263 60.9699 137.417 62.2494C138.249 69.1566 139.08 76.0647 139.909 82.9736C140.251 85.8409 140.996 91.937 141.651 97.2969C141.961 99.831 142.252 102.205 142.47 103.987C142.47 104.049 142.47 104.106 142.47 104.171C142.47 104.364 142.488 104.555 142.512 104.749C143.331 111.561 144.129 118.375 144.983 125.184C145.375 128.454 143.138 131.055 139.755 131.079H139.763Z" fill="#154A81"/>
<path d="M116.757 93.3394C115.596 92.1073 114.149 92.1434 112.958 93.3394C109.605 96.713 105.315 96.6975 101.901 93.3239C100.7 92.1331 99.3 92.1409 98.0938 93.3446C94.711 96.7181 90.4587 96.7026 87.0389 93.3188C85.838 92.128 84.3878 92.1202 83.2372 93.3549C82.476 94.2103 81.5193 94.8796 80.4442 95.3089C79.369 95.7383 78.2054 95.9157 77.0471 95.827C75.8329 95.7598 75.1913 96.2377 75.1621 97.1676C75.133 98.0975 75.7348 98.6451 76.9172 98.7175C78.2543 98.8224 79.5995 98.6666 80.874 98.259C82.1486 97.8513 83.3269 97.2002 84.3401 96.3436C84.6052 96.1188 84.8703 95.8864 85.1672 95.6384C87.2377 97.6739 89.6952 98.7381 92.5743 98.7381C95.4533 98.7381 97.9479 97.6274 99.9972 95.6384C103.955 99.4924 110.249 99.9987 114.875 95.6694C115.14 95.8967 115.405 96.1292 115.67 96.3539C116.699 97.2198 117.898 97.8737 119.193 98.2764C120.488 98.679 121.854 98.822 123.207 98.6968C124.313 98.6115 124.885 98.0226 124.838 97.1314C124.79 96.2403 124.164 95.7469 123.024 95.8141C120.524 95.9794 118.459 95.1476 116.757 93.3394Z" fill="#154A81"/>
<path d="M116.855 81.5299C115.57 80.1712 114.17 80.1919 112.847 81.5299C109.692 84.7614 105.183 84.7511 102.007 81.5093C100.695 80.1712 99.3081 80.1815 97.9878 81.5325C94.8702 84.7304 90.2997 84.7484 87.2139 81.579C85.8115 80.1402 84.4568 80.1428 83.0677 81.6074C82.0436 82.7166 80.683 83.4785 79.1839 83.7824C78.765 83.8676 78.3276 83.865 77.9087 83.9425C76.957 84.113 76.4798 84.7175 76.5832 85.5492C76.6681 86.3242 77.2619 86.8149 78.1739 86.7917C78.6686 86.7745 79.1613 86.721 79.6478 86.6315C81.7925 86.2622 83.5793 85.2186 85.17 83.723C87.251 85.7481 89.6926 86.8072 92.577 86.8227C95.4613 86.8382 97.9454 85.7094 99.9999 83.7669C105.18 87.8818 108.95 87.8792 114.928 83.8031L115.503 84.2887C117.186 85.7714 119.336 86.6515 121.601 86.7839C122.743 86.8485 123.388 86.4042 123.47 85.5286C123.555 84.6012 122.987 83.9968 121.808 83.9064C119.9 83.7811 118.12 82.9271 116.855 81.5299Z" fill="#154A81"/>
<path d="M87.1716 69.583C86.0502 68.4025 84.5921 68.1597 83.6006 69.1594C82.2751 70.4974 80.8064 71.4635 78.9506 71.944C78.2216 72.1325 77.8902 72.8119 78.097 73.5816C78.1636 73.9196 78.3608 74.2197 78.6479 74.4202C78.935 74.6206 79.29 74.706 79.6399 74.6588C79.9718 74.653 80.2992 74.5818 80.6022 74.4496C82.1717 73.6746 83.7252 72.8713 85.3529 72.0447C90.1407 75.94 95.1088 75.9194 100.048 71.8458C104.311 75.8858 110.607 75.847 114.862 71.8019C115.078 72.0208 115.315 72.2189 115.57 72.3934C116.853 73.1012 118.146 73.7857 119.446 74.4599C119.628 74.5352 119.821 74.5831 120.018 74.602C121.026 74.7725 121.728 74.3798 121.932 73.5377C122.12 72.7628 121.686 72.0731 120.744 71.8251C119.294 71.4728 117.979 70.7204 116.956 69.6579C115.53 68.1571 114.215 68.17 112.744 69.6734C109.737 72.7499 105.103 72.7396 102.102 69.6476C100.665 68.1649 99.3452 68.17 97.8845 69.6812C96.7474 70.9156 95.1856 71.7013 93.4943 71.8897C90.9864 72.1739 88.8841 71.3912 87.1716 69.583Z" fill="#154A81"/>
<path d="M91.88 113.803C94.9128 114.645 96.7844 117.177 96.7897 120.501C96.7897 128.972 96.7897 137.443 96.7897 145.914V147.063H100.976C100.994 146.833 101.018 146.678 101.018 146.523C101.018 137.57 101.092 128.615 100.97 119.659C100.915 115.526 98.7382 112.426 94.9605 110.561C91.1827 108.696 87.4182 108.934 83.9745 111.282C79.0064 114.674 78.7254 118.995 79.2026 124.417H83.333C83.333 122.823 83.2853 121.317 83.333 119.798C83.3775 118.812 83.651 117.848 84.1328 116.979C84.6147 116.11 85.2923 115.359 86.1149 114.782C86.9375 114.205 87.8836 113.817 88.8821 113.648C89.8806 113.478 90.9056 113.531 91.88 113.803Z" fill="white"/>
<path d="M108.314 124.458C108.314 122.805 108.266 121.263 108.314 119.724C108.401 118.066 109.134 116.504 110.364 115.355C111.594 114.207 113.228 113.56 114.931 113.547C116.635 113.533 118.279 114.154 119.528 115.283C120.777 116.411 121.537 117.962 121.651 119.618C121.731 121.095 121.712 122.581 121.68 124.061C121.654 124.341 121.709 124.622 121.838 124.874C121.968 125.125 122.166 125.337 122.412 125.484C124.798 127.168 125.18 130.611 122.993 132.458C121.821 133.455 121.564 134.45 121.686 135.773C121.739 136.349 121.638 136.94 121.715 137.508C121.757 137.864 121.928 138.194 122.197 138.438C125.114 140.59 125.14 144.243 122.211 146.368C121.97 146.574 121.744 146.794 121.532 147.027H125.999V143.801C125.999 135.909 126.065 128.018 125.972 120.127C125.917 115.477 123.587 112.083 119.196 110.21C115.114 108.469 110.49 109.461 107.309 112.535C103.863 115.893 103.794 120.088 104.085 124.44L108.314 124.458Z" fill="white"/>
<path d="M119.978 127.491C119.656 127.424 119.327 127.394 118.998 127.403C114.309 127.403 109.618 127.403 104.926 127.403C104.642 127.403 104.358 127.444 104.056 127.465V131.081H117.362C118.12 131.081 118.881 131.104 119.639 131.066C120.089 131.049 120.518 130.874 120.846 130.572C121.173 130.27 121.376 129.863 121.418 129.425C121.455 128.988 121.331 128.553 121.067 128.198C120.802 127.843 120.416 127.592 119.978 127.491Z" fill="white"/>
<path d="M120.029 140.683C119.643 140.599 119.249 140.562 118.854 140.572C114.259 140.572 109.669 140.572 105.085 140.572C104.74 140.572 104.393 140.605 104.043 140.624V144.261H118.889C119.185 144.268 119.482 144.256 119.777 144.224C120.207 144.177 120.607 143.984 120.907 143.679C121.206 143.374 121.387 142.977 121.418 142.556C121.447 142.135 121.324 141.717 121.07 141.375C120.817 141.033 120.448 140.788 120.029 140.683Z" fill="white"/>
<path d="M93.8152 120.886C93.825 120.532 93.8161 120.177 93.7887 119.824C93.5792 117.977 92.198 116.629 90.3953 116.484C88.5396 116.332 86.7846 117.43 86.5036 119.326C86.2544 121.01 86.4506 122.753 86.4506 124.474H93.8152C93.8152 123.193 93.8179 122.041 93.8152 120.886Z" fill="white"/>
<path d="M118.722 123.942C118.722 122.562 118.767 121.178 118.69 119.809C118.636 118.917 118.239 118.078 117.577 117.459C116.915 116.84 116.038 116.487 115.122 116.471C113.266 116.407 111.495 117.778 111.347 119.597C111.217 121.183 111.32 122.79 111.32 124.456H118.663C118.693 124.286 118.712 124.114 118.722 123.942Z" fill="white"/>
</g>
<defs>
<clipPath id="clip0_593_211">
<rect width="96" height="99" fill="white" transform="translate(52 51)"/>
</clipPath>
</defs>
</svg>
